PathFileType	3	(X/Y/Z)	F:\ViconData\AntennenMessung\Messung1\Session1\ID14.trc
DataRate	CameraRate	NumFrames	NumMarkers	Units	OrigDataRate	OrigDataStartFrame	OrigNumFrames
120.0	120.0	6	70	mm	120.0	1698	1940	
Frame#	Time	Ashort			Along			Atop			A4			Bshort			Blong			Btop			B4			Cshort			Clong			Ctop			C4			Dshort			Dlong			Dtop			D4			Eshort			Elong			Etop			E4			Fshort			Flong			Ftop			F4			Gshort			Glong			Gtop			G4			Hshort			Hlong			Htop			H4			I1			I2			I3			I4			I5			WandAshort			WandAlong			WandAtop			WandA4			WandA15			WandBshort			WandB4			WandB5			WandBtop			WandBlong			WandCshort			WandClong			WandCtop			WandC4			WandC5			Acenter			Aantenna			Bcenter			Bantenna			Ccenter			Cantenna			Dcenter			Dantenna			Ecenter			Eantenna			Fcenter			Fantenna			Gcenter			Gantenna			Hcenter			Hantenna			Icenter			Iantenna			
		X1	Y1	Z1	X2	Y2	Z2	X3	Y3	Z3	X4	Y4	Z4	X5	Y5	Z5	X6	Y6	Z6	X7	Y7	Z7	X8	Y8	Z8	X9	Y9	Z9	X10	Y10	Z10	X11	Y11	Z11	X12	Y12	Z12	X13	Y13	Z13	X14	Y14	Z14	X15	Y15	Z15	X16	Y16	Z16	X17	Y17	Z17	X18	Y18	Z18	X19	Y19	Z19	X20	Y20	Z20	X21	Y21	Z21	X22	Y22	Z22	X23	Y23	Z23	X24	Y24	Z24	X25	Y25	Z25	X26	Y26	Z26	X27	Y27	Z27	X28	Y28	Z28	X29	Y29	Z29	X30	Y30	Z30	X31	Y31	Z31	X32	Y32	Z32	X33	Y33	Z33	X34	Y34	Z34	X35	Y35	Z35	X36	Y36	Z36	X37	Y37	Z37	X38	Y38	Z38	X39	Y39	Z39	X40	Y40	Z40	X41	Y41	Z41	X42	Y42	Z42	X43	Y43	Z43	X44	Y44	Z44	X45	Y45	Z45	X46	Y46	Z46	X47	Y47	Z47	X48	Y48	Z48	X49	Y49	Z49	X50	Y50	Z50	X51	Y51	Z51	X52	Y52	Z52	X53	Y53	Z53	X54	Y54	Z54	X55	Y55	Z55	X56	Y56	Z56	X57	Y57	Z57	X58	Y58	Z58	X59	Y59	Z59	X60	Y60	Z60	X61	Y61	Z61	X62	Y62	Z62	X63	Y63	Z63	X64	Y64	Z64	X65	Y65	Z65	X66	Y66	Z66	X67	Y67	Z67	X68	Y68	Z68	X69	Y69	Z69	X70	Y70	Z70	
1698	14.141667	-1038.1981	214.55331	-1644.0819	-1109.3645	204.19489	-1599.3976	-1063.4933	172.95438	-1625.8762	-1054.1226	262.20584	-1634.881	-1352.7295	235.13612	1003.5753	-1281.3954	227.40631	1052.199	-1322.7084	193.9257	1020.854	-1284.4257	287.95737	1052.7218	813.9552	187.68845	1209.5897	892.34296	178.5347	1178.9893	844.56586	145.42786	1198.3578	861.0528	292.50647	1168.4211	1115.8622	209.75647	-1401.6464	1056.3531	194.16731	-1460.209	1095.2389	162.55302	-1423.7305	1069.7661	238.97154	-1425.886	-1204.6285	1686.1327	-1563.0093	-1129.1127	1688.3748	-1606.2356	-1173.1099	1724.3955	-1581.9633	-1134.0128	1581.0508	-1603.8385	-1239.584	1699.0936	1119.467	-1309.4058	1698.9203	1071.9946	-1270.3203	1736.1332	1096.854	-1245.5372	1592.6664	1110.6538	988.85724	1664.2107	1162.1956	957.32996	1700.5538	1183.8066	922.00806	1662.2593	1214.892	939.86133	1659.448	1159.8369	999.17462	1668.4464	-1579.3727	1058.9181	1670.1412	-1518.67	1025.0779	1708.0747	-1551.1329	1059.3422	1672.1565	-1585.3722	-238.08208	1170.4253	-194.63628	-153.3625	1173.0334	-193.86053	-201.04951	1208.8878	-193.91986	-202.26776	1171.2576	-162.69696	-200.56049	1172.8563	-241.63818																																														-1068.423	210.15401	-1625.1042	-1073.5454	248.80782	-1624.302	-1321.3927	231.74043	1024.9354	-1320.0446	270.49207	1029.118	848.19989	183.6895	1196.2214	851.88177	222.45494	1194.0571	1088.9991	202.71938	-1428.082	1083.0464	241.03819	-1432.2334	-1171.8826	1687.1049	-1581.7535	-1170.5999	1648.1265	-1581.5342	-1271.0547	1699.0154	1098.0697	-1271.8259	1660.0439	1099.3463	952.86865	1705.6964	1186.8647	972.85956	1733.8344	1168.7092	1026.5803	1669.2238	-1551.5267	1028.0874	1630.2549	-1551.9221	-199.89824	1171.6008	-194.28664	-198.69472	1132.6213	-194.67004
1699	14.15	-1038.1849	214.62317	-1644.1183	-1109.3525	204.20078	-1599.3933	-1063.4829	172.94951	-1625.9115	-1054.1271	262.28439	-1634.9395	-1352.7335	235.06862	1003.5593	-1281.3512	227.36803	1052.24	-1322.7158	193.9223	1020.8198	-1284.4354	287.98859	1052.7104	814.02618	187.69122	1209.5975	892.29968	178.54985	1179.0229	844.54108	145.45663	1198.3409	861.16132	292.26749	1168.2891	1115.9137	210.06165	-1401.7919	1056.3784	194.11765	-1460.1832	1095.5187	162.84074	-1423.691	1069.7657	238.94107	-1425.8715	-1204.6351	1686.1273	-1562.9865	-1129.1084	1688.3494	-1606.2395	-1173.1055	1724.3912	-1581.9509	-1134.0022	1581.0553	-1603.8423	-1239.562	1699.0637	1119.4548	-1309.2782	1698.7285	1071.9279	-1270.4271	1736.2533	1096.8983	-1245.5623	1592.7057	1110.6658	988.828	1664.2142	1162.1794	957.38953	1700.493	1183.7943	921.98663	1662.2744	1214.8997	939.88525	1659.4547	1159.7946	999.17462	1668.4392	-1579.3556	1058.9363	1670.1613	-1518.6659	1025.0754	1708.0756	-1551.1272	1059.3541	1672.1622	-1585.3794	-238.07642	1170.4194	-194.64778	-153.3707	1173.0293	-193.84438	-201.0394	1208.8989	-193.91133	-202.30153	1171.2789	-162.69341	-200.58014	1172.8451	-241.64586																																														-1068.433	210.19337	-1625.1091	-1073.5701	248.84459	-1624.2764	-1321.4293	231.69157	1024.9078	-1320.1094	270.4429	1029.1022	848.19159	183.70113	1196.252	851.89197	222.46739	1194.1348	1089.1051	202.88213	-1428.0852	1082.973	241.16716	-1432.2867	-1171.8877	1687.0906	-1581.7405	-1170.615	1648.1121	-1581.5206	-1271.0096	1698.9125	1098.0164	-1271.6178	1659.9348	1099.1833	952.86584	1705.7131	1186.9043	972.87024	1733.8539	1168.7682	1026.589	1669.2291	-1551.5154	1028.1073	1630.2606	-1551.9048	-199.88652	1171.5961	-194.28555	-198.68182	1132.6167	-194.67661
1700	14.158333	-1038.2015	214.64664	-1644.1243	-1109.3755	204.10155	-1599.3524	-1063.4955	172.93307	-1625.8695	-1054.1519	262.28156	-1634.866	-1352.7196	235.12732	1003.5837	-1281.3452	227.41818	1052.2102	-1322.7366	193.91896	1020.9056	-1284.5198	287.93082	1052.6641	814.00201	187.63504	1209.6552	892.30304	178.48289	1179.0629	844.55859	145.45099	1198.343	861.04993	292.37393	1168.103	1115.8574	209.77263	-1401.6649	1056.3484	194.11336	-1460.2079	1095.3502	162.66475	-1423.7653	1069.7715	238.92152	-1425.8643	-1204.6499	1686.1285	-1562.9766	-1129.1132	1688.3774	-1606.2383	-1173.1036	1724.4097	-1581.9596	-1134.0067	1581.0476	-1603.8214	-1239.5902	1699.093	1119.4724	-1309.3823	1698.864	1071.9739	-1270.4072	1736.2368	1096.8813	-1245.5781	1592.7518	1110.6987	988.83124	1664.2278	1162.1729	957.35156	1700.4987	1183.8489	922.06201	1662.275	1214.8342	939.81604	1659.4358	1159.8029	999.17487	1668.4352	-1579.3506	1058.9275	1670.1527	-1518.6659	1025.0778	1708.0758	-1551.1195	1059.3518	1672.1522	-1585.3645	-238.08975	1170.4436	-194.64268	-153.358	1173.0461	-193.84377	-201.05426	1208.9054	-193.90491	-202.28487	1171.2672	-162.68256	-200.56378	1172.8629	-241.63968																																														-1068.5033	210.15712	-1625.0629	-1073.7019	248.80002	-1624.2256	-1321.3912	231.74353	1024.9274	-1320.0126	270.5007	1029.0483	848.21832	183.63568	1196.2867	851.9339	222.40211	1194.1991	1089.0319	202.71371	-1428.0551	1082.9878	241.02339	-1432.1584	-1171.8724	1687.1044	-1581.749	-1170.5858	1648.1261	-1581.5292	-1271.076	1698.9896	1098.0439	-1271.7761	1660.0149	1099.2604	952.86005	1705.6737	1186.9415	972.85107	1733.8439	1168.8362	1026.5892	1669.223	-1551.5084	1028.1055	1630.2545	-1551.8984	-199.90541	1171.6165	-194.28265	-198.70448	1132.637	-194.67752
1701	14.166667	-1038.1899	214.58118	-1644.104	-1109.3829	204.24445	-1599.4141	-1063.4962	172.91736	-1625.8577	-1054.1259	262.27939	-1634.8785	-1352.718	235.14165	1003.4927	-1281.3346	227.44823	1052.2163	-1322.714	193.90892	1020.8699	-1284.4008	287.98038	1052.6215	814.04181	187.67171	1209.4554	892.33337	178.56177	1178.9943	844.52832	145.38335	1198.4202	861.00348	292.29074	1168.1538	1115.9128	210.05495	-1401.8092	1056.3395	194.13469	-1460.1873	1095.2819	162.65747	-1423.7268	1069.7728	238.94368	-1425.8866	-1204.6321	1686.1305	-1562.995	-1129.1185	1688.3503	-1606.2499	-1173.1147	1724.3904	-1581.9482	-1134.0144	1581.0582	-1603.8209	-1239.6023	1699.12	1119.4775	-1308.4087	1699.4805	1070.5083	-1270.4	1736.2532	1096.8926	-1245.5645	1592.7292	1110.676	988.84528	1664.2177	1162.1753	957.37311	1700.4802	1183.8474	922.08484	1662.3062	1214.8657	939.84033	1659.4463	1159.8046	999.1828	1668.4554	-1579.3473	1058.6798	1670.0372	-1518.7067	1025.0746	1708.0685	-1551.1156	1059.3497	1672.1581	-1585.3755	-238.10168	1170.4475	-194.64597	-153.36481	1173.0287	-193.84851	-201.05499	1208.8933	-193.90836	-202.31134	1171.2781	-162.71889	-200.55908	1172.844	-241.64236																																														-1068.4412	210.18889	-1625.1144	-1073.5695	248.84256	-1624.3434	-1321.3754	231.76364	1024.8859	-1320.0048	270.52203	1028.998	848.12201	183.70615	1196.1957	851.75714	222.4711	1193.9457	1088.9523	202.85008	-1428.2286	1082.9224	241.14163	-1432.5177	-1171.9011	1687.0927	-1581.7435	-1170.6327	1648.1139	-1581.5295	-1270.8433	1699.2836	1097.2434	-1271.3109	1660.2882	1097.6133	952.85327	1705.6879	1186.9597	972.83221	1733.8571	1168.8397	1026.5026	1669.1819	-1551.5023	1027.9337	1630.21	-1551.8899	-199.9157	1171.6106	-194.28659	-198.72455	1132.6309	-194.68207
1702	14.175	-1038.1981	214.55699	-1644.0702	-1109.3744	204.22583	-1599.4025	-1063.536	172.93861	-1625.8517	-1054.1383	262.30423	-1634.894	-1352.6743	235.17767	1003.5455	-1281.3674	227.35028	1052.2026	-1322.7515	193.95872	1020.8634	-1284.3347	288.02167	1052.5793	813.99048	187.68239	1209.5166	892.30048	178.43689	1179.0856	844.57385	145.48814	1198.2654	861.00897	292.41562	1168.2764	1115.8978	210.0424	-1401.7902	1056.3494	194.11728	-1460.1941	1095.2932	162.57071	-1423.7621	1069.7206	238.92439	-1425.8973	-1204.6426	1686.1307	-1562.979	-1129.1184	1688.37	-1606.2561	-1173.1409	1724.3055	-1581.8563	-1134.0181	1581.068	-1603.8407	-1239.5836	1699.0732	1119.4585	-1309.3337	1698.8093	1071.9482	-1270.416	1736.2622	1096.8904	-1245.5626	1592.7649	1110.6682	988.8924	1664.2802	1162.1802	957.29218	1700.5656	1183.8184	921.98676	1662.3083	1214.9062	939.8775	1659.4531	1159.8094	999.16388	1668.4758	-1579.3848	1058.891	1670.0651	-1518.7235	1025.071	1708.0734	-1551.1199	1059.3396	1672.1986	-1585.4841	-238.08641	1170.4178	-194.64204	-153.3714	1173.0323	-193.85806	-201.05423	1208.8948	-193.90706	-202.31953	1171.2732	-162.70616	-200.56834	1172.8606	-241.65186																																														-1068.4561	210.16508	-1625.0813	-1073.5649	248.82074	-1624.2814	-1321.3651	231.74084	1024.9097	-1319.9431	270.49332	1029.0598	848.27283	183.6349	1196.1946	852.03143	222.3963	1194.0903	1088.9241	202.82878	-1428.2455	1082.8665	241.11873	-1432.5095	-1171.954	1687.1	-1581.7102	-1170.7107	1648.12	-1581.557	-1271.0486	1698.9541	1098.0261	-1271.7095	1659.9778	1099.2128	952.74915	1705.7822	1186.9291	972.69214	1733.9657	1168.7917	1026.5562	1669.2046	-1551.564	1028.0452	1630.2357	-1552.0093	-199.89957	1171.5964	-194.28864	-198.69289	1132.6171	-194.68742
1703	14.183333	-1038.1793	214.57402	-1644.0836	-1109.3728	204.28557	-1599.4226	-1063.5052	172.91786	-1625.8638	-1054.1021	262.2356	-1634.9055	-1352.6974	235.10321	1003.5633	-1281.422	227.35315	1052.246	-1322.6917	193.94756	1020.8669	-1284.3931	287.97467	1052.6837	814.01263	187.74799	1209.5038	892.27551	178.42947	1179.0823	844.51422	145.43178	1198.2371	861.05756	292.73093	1168.4512	1115.9156	210.06024	-1401.7904	1056.347	194.12599	-1460.1968	1095.3213	162.66249	-1423.7399	1069.7297	238.95946	-1425.9182	-1204.6395	1686.1284	-1562.9932	-1129.1185	1688.2952	-1606.0037	-1173.1162	1724.3579	-1581.9213	-1134.0082	1581.0514	-1603.8386	-1239.5756	1699.0724	1119.4644	-1309.3224	1698.8195	1071.9517	-1270.322	1736.1521	1096.8619	-1245.5474	1592.7351	1110.675	988.86267	1664.2373	1162.1576	957.26379	1700.5712	1183.7965	922.50977	1662.077	1214.9369	939.86066	1659.392	1159.8167	999.17603	1668.4329	-1579.3601	1058.9209	1670.147	-1518.6755	1025.0676	1708.0703	-1551.116	1059.3466	1672.1588	-1585.3832	-238.08455	1170.4185	-194.64923	-153.37277	1173.0453	-193.85435	-201.0416	1208.8967	-193.90793	-202.30374	1171.2781	-162.7083	-200.56847	1172.8572	-241.64307																																														-1068.4219	210.20354	-1625.1118	-1073.5193	248.86111	-1624.332	-1321.3788	231.69781	1024.9545	-1320.0312	270.44803	1029.1504	848.27032	183.66902	1196.1874	852.07751	222.42709	1194.1099	1088.962	202.85031	-1428.218	1082.9032	241.13983	-1432.4845	-1171.889	1687.068	-1581.645	-1170.6063	1648.0901	-1581.3563	-1271.001	1698.9584	1098.0566	-1271.7125	1659.985	1099.3086	953.02997	1705.4392	1186.6958	972.84253	1733.5883	1168.3629	1026.5887	1669.2192	-1551.5162	1028.1144	1630.2512	-1551.9176	-199.88159	1171.603	-194.29076	-198.66919	1132.6239	-194.6909
